{"title":"The.Next.Three.Days.2010.720p.BRRip.x264.Feel-Free","uid":6195626,"size":3019416101,"categoryP":"video","categoryS":"hd___movies","magnet":"?xt=urn:btih:00dbdcfa669a12d5a2a0dc43c7dfa17ff5e80311&amp;dn=The.Next.Three.Days.2010.720p.BRRip.x264.Feel-Free&amp;tr=udp%3A%2F%2Ftracker.openbittorrent.com%3A80&amp;tr=udp%3A%2F%2Fopen.demonii.com%3A1337&amp;tr=udp%3A%2F%2Ftracker.coppersurfer.tk%3A6969&amp;tr=udp%3A%2F%2Fexodus.desync.com%3A6969","seeders":0,"leechers":1,"uploader":"hiest","files":-1,"time":1298448814,"description":"Genre:Crime | Drama | Romance\nLanguage:English\nIMDb:http://www.imdb.com/title/tt1458175/\nSource:1080p.BluRay.x264.TWiZTED\nSubtitles:Romana\n\n\nFormat : MPEG-4\nFormat profile : Base Media\nCodec ID : isom\nFile size : 2.81 GiB\nDuration : 2h 13mn\nOverall bit rate : 3 017 Kbps\n\n\nVideo\nFormat profile : &lt;a class=&quot;__cf_email__&quot; href=&quot;/cdn-cgi/l/email-protection&quot; data-cfemail=&quot;eca4858b84aca0d8c2dd&quot;&gt;[email&amp;#160;protected]&lt;/a&gt;&lt;script cf-hash='f9e31' type=&quot;text/javascript&quot;&gt;\n/* &lt;![CDATA[ */!function(){try{var t=&quot;currentScript&quot;in document?document.currentScript:function(){for(var t=document.getElementsByTagName(&quot;script&quot;),e=t.length;e--;)if(t[e].getAttribute(&quot;cf-hash&quot;))return t[e]}();if(t&amp;&amp;t.previousSibling){var e,r,n,i,c=t.previousSibling,a=c.getAttribute(&quot;data-cfemail&quot;);if(a){for(e=&quot;&quot;,r=parseInt(a.substr(0,2),16),n=2;a.length-n;n+=2)i=parseInt(a.substr(n,2),16)^r,e+=String.fromCharCode(i);e=document.createTextNode(e),c.parentNode.replaceChild(e,c)}}}catch(u){}}();/* ]]&gt; */&lt;/script&gt;\nFormat settings, CABAC : Yes\nFormat settings, ReFrames : 3 frames\nCodec ID : avc1\nCodec ID/Info : Advanced Video Coding\nDuration : 2h 13mn\nBit rate mode : Variable\nBit rate : 2 638 Kbps\nMaximum bit rate : 10.9 Mbps\nWidth : 1 280 pixels\nHeight : 544 pixels\nDisplay aspect ratio : 2.35:1\nFrame rate mode : Constant\nFrame rate : 23.976 fps\nColor space : YUV\nChroma subsampling : 4:2:0\nBit depth : 8 bits\nScan type : Progressive\nBits/(Pixel*Frame) : 0.158\nStream size : 2.39 GiB (85%)\nWriting library : x264\n\n\nAudio\nID : 2\nFormat : AAC\nFormat/Info : Advanced Audio Codec\nFormat version : Version 4\nFormat profile : LC\nFormat settings, SBR : No\nCodec ID : 40\nDuration : 2h 13mn\nBit rate mode : Variable\nBit rate : 443 Kbps\nMaximum bit rate : 545 Kbps\nChannel(s) : 6 channels\nChannel positions : Front: L C R, Side: L R, LFE\nSampling rate : 48.0 KHz\nStream size : 422 MiB (15%)\n\n\nPlot:\nA married couple's life is turned upside down when the wife is accused of a murder.","torrent":{"xt":"urn:btih:00dbdcfa669a12d5a2a0dc43c7dfa17ff5e80311","amp;dn":"The.Next.Three.Days.2010.720p.BRRip.x264.Feel-Free","amp;tr":["udp%3A%2F%2Ftracker.openbittorrent.com%3A80","udp%3A%2F%2Fopen.demonii.com%3A1337","udp%3A%2F%2Ftracker.coppersurfer.tk%3A6969","udp%3A%2F%2Fexodus.desync.com%3A6969"],"infoHash":"00dbdcfa669a12d5a2a0dc43c7dfa17ff5e80311","infoHashBuffer":{"type":"Buffer","data":[0,219,220,250,102,154,18,213,162,160,220,67,199,223,161,127,245,232,3,17]},"announce":[],"urlList":[]}}